<svg xmlns="http://www.w3.org/2000/svg" viewBox="0 0 100 100" width="256" height="256">
<title>Blue</title>
<defs><clipPath id="blue-frame"><circle cx="50" cy="52" r="45"/><rect x="0" y="0" width="100" height="52"/></clipPath><clipPath id="blue-head"><path d="M50,27 C69.22,27 81,40 81,56 C81,74 67.05,77 50,77 C32.95,77 19,74 19,56 C19,40 30.78,27 50,27 Z"/></clipPath><clipPath id="blue-body"><path d="M27,70 C15,76 9,88 8,104 L92,104 C91,88 85,76 73,70 Z"/></clipPath></defs>
<g id="backdrop"><circle cx="50" cy="52" r="45" fill="#CFE3D6"/></g>
<g id="cat" clip-path="url(#blue-frame)" stroke-linejoin="round" stroke-linecap="round">
<path d="M27,70 C15,76 9,88 8,104 L92,104 C91,88 85,76 73,70 Z" fill="#8E9CAE"/><g clip-path="url(#blue-body)"><ellipse cx="50" cy="78" rx="28.52" ry="9" fill="#74839A"/></g><path d="M27,70 C15,76 9,88 8,104 L92,104 C91,88 85,76 73,70 Z" fill="none" stroke="#2B2A28" stroke-width="2.6"/>
<g id="head"><path d="M19.93,50 L24.36,19.76 Q25.2,14 28.28,16.32 L44.42,28.5 Z" fill="#8E9CAE" stroke="#2B2A28" stroke-width="2.6" stroke-linejoin="round"/><path d="M24.29,42.67 L26.21,24.68 Q26.69,20.19 28.95,22.27 L38.01,30.63 Z" fill="#C8A8B4"/><g transform="translate(100 0) scale(-1 1)"><path d="M19.93,50 L24.36,19.76 Q25.2,14 28.28,16.32 L44.42,28.5 Z" fill="#8E9CAE" stroke="#2B2A28" stroke-width="2.6" stroke-linejoin="round"/><path d="M24.29,42.67 L26.21,24.68 Q26.69,20.19 28.95,22.27 L38.01,30.63 Z" fill="#C8A8B4"/></g><path d="M50,27 C69.22,27 81,40 81,56 C81,74 67.05,77 50,77 C32.95,77 19,74 19,56 C19,40 30.78,27 50,27 Z" fill="#8E9CAE"/><g clip-path="url(#blue-head)"><path d="M30,40 Q34,37 38,39 M70,40 Q66,37 62,39" fill="none" stroke="#74839A" stroke-width="2.4" stroke-linecap="round"/></g><path d="M50,27 C69.22,27 81,40 81,56 C81,74 67.05,77 50,77 C32.95,77 19,74 19,56 C19,40 30.78,27 50,27 Z" fill="none" stroke="#2B2A28" stroke-width="2.6"/><ellipse cx="30.78" cy="62" rx="5" ry="2.8" fill="#B9A2B8" opacity="0.85"/><ellipse cx="69.22" cy="62" rx="5" ry="2.8" fill="#B9A2B8" opacity="0.85"/><path d="M25,62 L11,59 M25,66 L12,68" stroke="#2B2A28" stroke-width="1.4" stroke-linecap="round" fill="none"/><g transform="translate(100 0) scale(-1 1)"><path d="M25,62 L11,59 M25,66 L12,68" stroke="#2B2A28" stroke-width="1.4" stroke-linecap="round" fill="none"/></g><ellipse cx="37.91" cy="57" rx="5.6" ry="6.6" fill="#93C85E" stroke="#2B2A28" stroke-width="2"/><ellipse cx="40.21" cy="57.6" rx="3.14" ry="4.88" fill="#2B2A28"/><circle cx="38.53" cy="55.22" r="1.85" fill="#fff"/><circle cx="41.78" cy="59.58" r="0.78" fill="#fff"/><path d="M30.71,48.4 H45.11 V56.21 H30.71 Z" fill="#8E9CAE"/><path d="M31.71,56.61 Q37.91,55.01 44.11,56.61" fill="none" stroke="#2B2A28" stroke-width="2.6" stroke-linecap="round"/><ellipse cx="62.09" cy="57" rx="5.6" ry="6.6" fill="#93C85E" stroke="#2B2A28" stroke-width="2"/><ellipse cx="64.39" cy="57.6" rx="3.14" ry="4.88" fill="#2B2A28"/><circle cx="62.71" cy="55.22" r="1.85" fill="#fff"/><circle cx="65.96" cy="59.58" r="0.78" fill="#fff"/><path d="M54.89,48.4 H69.29 V56.21 H54.89 Z" fill="#8E9CAE"/><path d="M55.89,56.61 Q62.09,55.01 68.29,56.61" fill="none" stroke="#2B2A28" stroke-width="2.6" stroke-linecap="round"/><path d="M46.4,62.65 Q50,61.05 53.6,62.65 Q51.6,66.25 50,66.45 Q48.4,66.25 46.4,62.65 Z" fill="#6C7384" stroke="#2B2A28" stroke-width="1.5" stroke-linejoin="round"/><path d="M50,66.25 V68.25 M46.5,69.25 Q50,67.85 53.5,69.25" fill="none" stroke="#2B2A28" stroke-width="2" stroke-linecap="round"/></g>
</g>
</svg>
