<svg xmlns="http://www.w3.org/2000/svg" viewBox="0 0 100 100" width="256" height="256">
<title>Fox Mask</title>
<defs><clipPath id="foxmask-frame"><circle cx="50" cy="52" r="45"/><rect x="0" y="0" width="100" height="52"/></clipPath><clipPath id="foxmask-head"><path d="M50,27 C69.22,27 81,40 81,56 C81,74 67.05,77 50,77 C32.95,77 19,74 19,56 C19,40 30.78,27 50,27 Z"/></clipPath><clipPath id="foxmask-body"><path d="M27,70 C15,76 9,88 8,104 L92,104 C91,88 85,76 73,70 Z"/></clipPath></defs>
<g id="backdrop"><circle cx="50" cy="52" r="45" fill="#F6D8E3"/></g>
<g id="cat" clip-path="url(#foxmask-frame)" stroke-linejoin="round" stroke-linecap="round">
<path d="M27,70 C15,76 9,88 8,104 L92,104 C91,88 85,76 73,70 Z" fill="#34302E"/><g clip-path="url(#foxmask-body)"><ellipse cx="50" cy="78" rx="28.52" ry="9" fill="#232020"/></g><path d="M27,70 C15,76 9,88 8,104 L92,104 C91,88 85,76 73,70 Z" fill="none" stroke="#2B2A28" stroke-width="2.6"/>
<g id="head"><path d="M19.93,50 L24.36,19.76 Q25.2,14 28.28,16.32 L44.42,28.5 Z" fill="#34302E" stroke="#2B2A28" stroke-width="2.6" stroke-linejoin="round"/><path d="M24.29,42.67 L26.21,24.68 Q26.69,20.19 28.95,22.27 L38.01,30.63 Z" fill="#A9787F"/><g transform="translate(100 0) scale(-1 1)"><path d="M19.93,50 L24.36,19.76 Q25.2,14 28.28,16.32 L44.42,28.5 Z" fill="#34302E" stroke="#2B2A28" stroke-width="2.6" stroke-linejoin="round"/><path d="M24.29,42.67 L26.21,24.68 Q26.69,20.19 28.95,22.27 L38.01,30.63 Z" fill="#A9787F"/></g><path d="M50,27 C69.22,27 81,40 81,56 C81,74 67.05,77 50,77 C32.95,77 19,74 19,56 C19,40 30.78,27 50,27 Z" fill="#34302E"/><g clip-path="url(#foxmask-head)"></g><path d="M50,27 C69.22,27 81,40 81,56 C81,74 67.05,77 50,77 C32.95,77 19,74 19,56 C19,40 30.78,27 50,27 Z" fill="none" stroke="#2B2A28" stroke-width="2.6"/><path d="M25,62 L11,59 M25,66 L12,68" stroke="#CFC8BC" stroke-width="1.4" stroke-linecap="round" fill="none"/><g transform="translate(100 0) scale(-1 1)"><path d="M25,62 L11,59 M25,66 L12,68" stroke="#CFC8BC" stroke-width="1.4" stroke-linecap="round" fill="none"/></g><ellipse cx="37.91" cy="57" rx="5.6" ry="6.6" fill="#F0C445" stroke="#2B2A28" stroke-width="2"/><ellipse cx="37.91" cy="57" rx="3.14" ry="4.88" fill="#2B2A28"/><circle cx="36.23" cy="54.62" r="1.85" fill="#fff"/><circle cx="39.48" cy="58.98" r="0.78" fill="#fff"/><ellipse cx="62.09" cy="57" rx="5.6" ry="6.6" fill="#F0C445" stroke="#2B2A28" stroke-width="2"/><ellipse cx="62.09" cy="57" rx="3.14" ry="4.88" fill="#2B2A28"/><circle cx="60.41" cy="54.62" r="1.85" fill="#fff"/><circle cx="63.66" cy="58.98" r="0.78" fill="#fff"/><path d="M46.4,62.65 Q50,61.05 53.6,62.65 Q51.6,66.25 50,66.45 Q48.4,66.25 46.4,62.65 Z" fill="#B9868D" stroke="#2B2A28" stroke-width="1.5" stroke-linejoin="round"/><path d="M50,66.45 Q50,70.25 46.4,70.25 Q44,70.25 43.6,68.05 M50,66.45 Q50,70.25 53.6,70.25 Q56,70.25 56.4,68.05" fill="none" stroke="#CFC8BC" stroke-width="2" stroke-linecap="round"/><g transform="rotate(24 72 34)"><path d="M58,20 L60,6 L68,16 L76,16 L84,6 L86,20 C88,32 82,44 72,48 C62,44 56,32 58,20 Z" fill="#FBF8F1" stroke="#2B2A28" stroke-width="2" stroke-linejoin="round" stroke-linecap="round"/><path d="M62,26 L68,28 M82,26 L76,28" stroke="#D9583B" stroke-width="2.4" stroke-linecap="round"/><path d="M61,10 L63,16 M83,10 L81,16" stroke="#D9583B" stroke-width="2"/><circle cx="72" cy="40" r="1.8" fill="#2B2A28"/><path d="M68,20 Q72,24 76,20" fill="none" stroke="#D9583B" stroke-width="1.6"/></g></g>
</g>
</svg>
