<svg xmlns="http://www.w3.org/2000/svg" viewBox="0 0 100 100" width="256" height="256">
<title>Hanami</title>
<defs><clipPath id="hanami-frame"><circle cx="50" cy="52" r="45"/><rect x="0" y="0" width="100" height="52"/></clipPath><clipPath id="hanami-head"><path d="M50,27 C69.22,27 81,40 81,56 C81,74 67.05,77 50,77 C32.95,77 19,74 19,56 C19,40 30.78,27 50,27 Z"/></clipPath><clipPath id="hanami-body"><path d="M27,70 C15,76 9,88 8,104 L92,104 C91,88 85,76 73,70 Z"/></clipPath></defs>
<g id="backdrop"><circle cx="50" cy="52" r="45" fill="#E4E8EF"/><circle cx="50" cy="52" r="43" fill="none" stroke="#A9B4C2" stroke-width="3"/><circle cx="50" cy="52" r="38.5" fill="none" stroke="#C9D2DE" stroke-width="1.2" stroke-dasharray="1.5 2.5"/></g>
<g id="cat" clip-path="url(#hanami-frame)" stroke-linejoin="round" stroke-linecap="round">
<path d="M27,70 C15,76 9,88 8,104 L92,104 C91,88 85,76 73,70 Z" fill="#F4CAD3"/><g clip-path="url(#hanami-body)"><ellipse cx="50" cy="78" rx="28.52" ry="9" fill="#E3A9B6"/></g><path d="M27,70 C15,76 9,88 8,104 L92,104 C91,88 85,76 73,70 Z" fill="none" stroke="#2B2A28" stroke-width="2.6"/>
<g id="head"><path d="M19.93,50 L24.36,19.76 Q25.2,14 28.28,16.32 L44.42,28.5 Z" fill="#F4CAD3" stroke="#2B2A28" stroke-width="2.6" stroke-linejoin="round"/><path d="M24.29,42.67 L26.21,24.68 Q26.69,20.19 28.95,22.27 L38.01,30.63 Z" fill="#F7E3E8"/><g transform="translate(100 0) scale(-1 1)"><path d="M19.93,50 L24.36,19.76 Q25.2,14 28.28,16.32 L44.42,28.5 Z" fill="#F4CAD3" stroke="#2B2A28" stroke-width="2.6" stroke-linejoin="round"/><path d="M24.29,42.67 L26.21,24.68 Q26.69,20.19 28.95,22.27 L38.01,30.63 Z" fill="#F7E3E8"/></g><path d="M50,27 C69.22,27 81,40 81,56 C81,74 67.05,77 50,77 C32.95,77 19,74 19,56 C19,40 30.78,27 50,27 Z" fill="#F4CAD3"/><g clip-path="url(#hanami-head)"></g><path d="M50,27 C69.22,27 81,40 81,56 C81,74 67.05,77 50,77 C32.95,77 19,74 19,56 C19,40 30.78,27 50,27 Z" fill="none" stroke="#2B2A28" stroke-width="2.6"/><ellipse cx="30.78" cy="62" rx="5" ry="2.8" fill="#E9879B" opacity="0.85"/><ellipse cx="69.22" cy="62" rx="5" ry="2.8" fill="#E9879B" opacity="0.85"/><path d="M25,62 L11,59 M25,66 L12,68" stroke="#2B2A28" stroke-width="1.4" stroke-linecap="round" fill="none"/><g transform="translate(100 0) scale(-1 1)"><path d="M25,62 L11,59 M25,66 L12,68" stroke="#2B2A28" stroke-width="1.4" stroke-linecap="round" fill="none"/></g><ellipse cx="37.91" cy="57" rx="5.6" ry="6.6" fill="#7AA9DE" stroke="#2B2A28" stroke-width="2"/><ellipse cx="37.91" cy="57" rx="3.14" ry="4.88" fill="#2B2A28"/><circle cx="36.23" cy="54.62" r="1.85" fill="#fff"/><circle cx="39.48" cy="58.98" r="0.78" fill="#fff"/><ellipse cx="62.09" cy="57" rx="5.6" ry="6.6" fill="#7AA9DE" stroke="#2B2A28" stroke-width="2"/><ellipse cx="62.09" cy="57" rx="3.14" ry="4.88" fill="#2B2A28"/><circle cx="60.41" cy="54.62" r="1.85" fill="#fff"/><circle cx="63.66" cy="58.98" r="0.78" fill="#fff"/><path d="M46.4,62.65 Q50,61.05 53.6,62.65 Q51.6,66.25 50,66.45 Q48.4,66.25 46.4,62.65 Z" fill="#E58C98" stroke="#2B2A28" stroke-width="1.5" stroke-linejoin="round"/><path d="M50,66.45 Q50,70.25 46.4,70.25 Q44,70.25 43.6,68.05 M50,66.45 Q50,70.25 53.6,70.25 Q56,70.25 56.4,68.05" fill="none" stroke="#2B2A28" stroke-width="2" stroke-linecap="round"/><circle cx="32" cy="27.66" r="3.64" fill="#F2B8C2" stroke="#2B2A28" stroke-width="1.3"/><circle cx="36.13" cy="30.66" r="3.64" fill="#F2B8C2" stroke="#2B2A28" stroke-width="1.3"/><circle cx="34.55" cy="35.51" r="3.64" fill="#F2B8C2" stroke="#2B2A28" stroke-width="1.3"/><circle cx="29.45" cy="35.51" r="3.64" fill="#F2B8C2" stroke="#2B2A28" stroke-width="1.3"/><circle cx="27.87" cy="30.66" r="3.64" fill="#F2B8C2" stroke="#2B2A28" stroke-width="1.3"/><circle cx="32" cy="32" r="2.52" fill="#F2B8C2"/><circle cx="32" cy="32" r="1.54" fill="#E58C98"/><circle cx="50" cy="21.04" r="4.16" fill="#F2B8C2" stroke="#2B2A28" stroke-width="1.3"/><circle cx="54.72" cy="24.47" r="4.16" fill="#F2B8C2" stroke="#2B2A28" stroke-width="1.3"/><circle cx="52.92" cy="30.01" r="4.16" fill="#F2B8C2" stroke="#2B2A28" stroke-width="1.3"/><circle cx="47.08" cy="30.01" r="4.16" fill="#F2B8C2" stroke="#2B2A28" stroke-width="1.3"/><circle cx="45.28" cy="24.47" r="4.16" fill="#F2B8C2" stroke="#2B2A28" stroke-width="1.3"/><circle cx="50" cy="26" r="2.88" fill="#F2B8C2"/><circle cx="50" cy="26" r="1.76" fill="#E58C98"/><circle cx="68" cy="27.66" r="3.64" fill="#F2B8C2" stroke="#2B2A28" stroke-width="1.3"/><circle cx="72.13" cy="30.66" r="3.64" fill="#F2B8C2" stroke="#2B2A28" stroke-width="1.3"/><circle cx="70.55" cy="35.51" r="3.64" fill="#F2B8C2" stroke="#2B2A28" stroke-width="1.3"/><circle cx="65.45" cy="35.51" r="3.64" fill="#F2B8C2" stroke="#2B2A28" stroke-width="1.3"/><circle cx="63.87" cy="30.66" r="3.64" fill="#F2B8C2" stroke="#2B2A28" stroke-width="1.3"/><circle cx="68" cy="32" r="2.52" fill="#F2B8C2"/><circle cx="68" cy="32" r="1.54" fill="#E58C98"/></g>
<g transform="translate(20 84) rotate(-30) scale(1.1)"><path d="M0,6 C-6,2 -6,-5 -2.5,-7 L0,-4.5 L2.5,-7 C6,-5 6,2 0,6 Z" fill="#F2B8C2" stroke="#2B2A28" stroke-width="1.27" stroke-linejoin="round"/><path d="M0,3.5 V-1" stroke="#E58C98" stroke-width="0.91" stroke-linecap="round"/></g><g transform="translate(80 90) rotate(30) scale(1)"><path d="M0,6 C-6,2 -6,-5 -2.5,-7 L0,-4.5 L2.5,-7 C6,-5 6,2 0,6 Z" fill="#F2B8C2" stroke="#2B2A28" stroke-width="1.4" stroke-linejoin="round"/><path d="M0,3.5 V-1" stroke="#E58C98" stroke-width="1" stroke-linecap="round"/></g><g transform="translate(64 98) rotate(10) scale(0.8)"><path d="M0,6 C-6,2 -6,-5 -2.5,-7 L0,-4.5 L2.5,-7 C6,-5 6,2 0,6 Z" fill="#F2B8C2" stroke="#2B2A28" stroke-width="1.75" stroke-linejoin="round"/><path d="M0,3.5 V-1" stroke="#E58C98" stroke-width="1.25" stroke-linecap="round"/></g></g>
</svg>
