<svg xmlns="http://www.w3.org/2000/svg" viewBox="0 0 100 100" width="256" height="256">
<title>Matcha</title>
<defs><clipPath id="matcha-frame"><circle cx="50" cy="52" r="45"/><rect x="0" y="0" width="100" height="52"/></clipPath><clipPath id="matcha-head"><path d="M50,27 C69.22,27 81,40 81,56 C81,74 67.05,77 50,77 C32.95,77 19,74 19,56 C19,40 30.78,27 50,27 Z"/></clipPath><clipPath id="matcha-body"><path d="M27,70 C15,76 9,88 8,104 L92,104 C91,88 85,76 73,70 Z"/></clipPath></defs>
<g id="backdrop"><circle cx="50" cy="52" r="45" fill="#E4E8EF"/><circle cx="50" cy="52" r="43" fill="none" stroke="#A9B4C2" stroke-width="3"/><circle cx="50" cy="52" r="38.5" fill="none" stroke="#C9D2DE" stroke-width="1.2" stroke-dasharray="1.5 2.5"/></g>
<g id="cat" clip-path="url(#matcha-frame)" stroke-linejoin="round" stroke-linecap="round">
<path d="M27,70 C15,76 9,88 8,104 L92,104 C91,88 85,76 73,70 Z" fill="#C8DCA8"/><g clip-path="url(#matcha-body)"><ellipse cx="50" cy="78" rx="28.52" ry="9" fill="#A9C486"/></g><path d="M27,70 C15,76 9,88 8,104 L92,104 C91,88 85,76 73,70 Z" fill="none" stroke="#2B2A28" stroke-width="2.6"/>
<g id="head"><path d="M19.93,50 L24.36,19.76 Q25.2,14 28.28,16.32 L44.42,28.5 Z" fill="#C8DCA8" stroke="#2B2A28" stroke-width="2.6" stroke-linejoin="round"/><path d="M24.29,42.67 L26.21,24.68 Q26.69,20.19 28.95,22.27 L38.01,30.63 Z" fill="#F2C3B4"/><g transform="translate(100 0) scale(-1 1)"><path d="M19.93,50 L24.36,19.76 Q25.2,14 28.28,16.32 L44.42,28.5 Z" fill="#C8DCA8" stroke="#2B2A28" stroke-width="2.6" stroke-linejoin="round"/><path d="M24.29,42.67 L26.21,24.68 Q26.69,20.19 28.95,22.27 L38.01,30.63 Z" fill="#F2C3B4"/></g><path d="M50,27 C69.22,27 81,40 81,56 C81,74 67.05,77 50,77 C32.95,77 19,74 19,56 C19,40 30.78,27 50,27 Z" fill="#C8DCA8"/><g clip-path="url(#matcha-head)"><ellipse cx="50" cy="68" rx="14" ry="9" fill="#EEF4DF"/><path d="M44,31 L45,37" fill="none" stroke="#8DAE68" stroke-width="2.6" stroke-linecap="round"/><path d="M50,29 V36" fill="none" stroke="#8DAE68" stroke-width="2.6" stroke-linecap="round"/><path d="M56,31 L55,37" fill="none" stroke="#8DAE68" stroke-width="2.6" stroke-linecap="round"/></g><path d="M50,27 C69.22,27 81,40 81,56 C81,74 67.05,77 50,77 C32.95,77 19,74 19,56 C19,40 30.78,27 50,27 Z" fill="none" stroke="#2B2A28" stroke-width="2.6"/><ellipse cx="30.78" cy="62" rx="5" ry="2.8" fill="#F4A9B4" opacity="0.85"/><ellipse cx="69.22" cy="62" rx="5" ry="2.8" fill="#F4A9B4" opacity="0.85"/><path d="M25,62 L11,59 M25,66 L12,68" stroke="#2B2A28" stroke-width="1.4" stroke-linecap="round" fill="none"/><g transform="translate(100 0) scale(-1 1)"><path d="M25,62 L11,59 M25,66 L12,68" stroke="#2B2A28" stroke-width="1.4" stroke-linecap="round" fill="none"/></g><path d="M32.41,59 Q37.91,52 43.41,59" fill="none" stroke="#2B2A28" stroke-width="2.6" stroke-linecap="round"/><path d="M56.59,59 Q62.09,52 67.59,59" fill="none" stroke="#2B2A28" stroke-width="2.6" stroke-linecap="round"/><path d="M46.4,62.65 Q50,61.05 53.6,62.65 Q51.6,66.25 50,66.45 Q48.4,66.25 46.4,62.65 Z" fill="#E58C98" stroke="#2B2A28" stroke-width="1.5" stroke-linejoin="round"/><path d="M50,66.45 Q50,70.25 46.4,70.25 Q44,70.25 43.6,68.05 M50,66.45 Q50,70.25 53.6,70.25 Q56,70.25 56.4,68.05" fill="none" stroke="#2B2A28" stroke-width="2" stroke-linecap="round"/></g>
<path d="M64,104 L66,82 L82,82 L84,104 Z" fill="#E7D9B2" stroke="#2B2A28" stroke-width="2.6" stroke-linejoin="round" stroke-linecap="round"/><path d="M68,82 Q68,70 74,66" fill="none" stroke="#C9B27A" stroke-width="1.6"/><path d="M72,82 Q72,70 74,66" fill="none" stroke="#C9B27A" stroke-width="1.6"/><path d="M76,82 Q76,70 74,66" fill="none" stroke="#C9B27A" stroke-width="1.6"/><path d="M80,82 Q80,70 74,66" fill="none" stroke="#C9B27A" stroke-width="1.6"/><rect x="68" y="58" width="12" height="9" rx="2" fill="#B8924A" stroke="#2B2A28" stroke-width="1.6" stroke-linejoin="round" stroke-linecap="round"/><g transform="rotate(-6 34 90)"><ellipse cx="34" cy="90" rx="9" ry="6.5" fill="#C8DCA8" stroke="#2B2A28" stroke-width="2.6" stroke-linejoin="round" stroke-linecap="round"/><path d="M31.03,90.98 v3.9 M36.97,90.98 v3.9" stroke="#2B2A28" stroke-width="1.5" stroke-linejoin="round" stroke-linecap="round" fill="none"/></g></g>
</svg>
