<svg xmlns="http://www.w3.org/2000/svg" viewBox="0 0 100 100" width="256" height="256">
<title>Sphynx</title>
<defs><clipPath id="sphynx-frame"><circle cx="50" cy="52" r="45"/><rect x="0" y="0" width="100" height="52"/></clipPath><clipPath id="sphynx-head"><path d="M50,29 C67.98,29 79,42 79,58 C79,76 65.95,79 50,79 C34.05,79 21,76 21,58 C21,42 32.02,29 50,29 Z"/></clipPath><clipPath id="sphynx-body"><path d="M27,70 C15,76 9,88 8,104 L92,104 C91,88 85,76 73,70 Z"/></clipPath></defs>
<g id="backdrop"><circle cx="50" cy="52" r="45" fill="#C9CFE8"/></g>
<g id="cat" clip-path="url(#sphynx-frame)" stroke-linejoin="round" stroke-linecap="round">
<path d="M27,70 C15,76 9,88 8,104 L92,104 C91,88 85,76 73,70 Z" fill="#EEC3A7"/><g clip-path="url(#sphynx-body)"><ellipse cx="50" cy="80" rx="26.68" ry="9" fill="#D8A184"/></g><path d="M27,70 C15,76 9,88 8,104 L92,104 C91,88 85,76 73,70 Z" fill="none" stroke="#2B2A28" stroke-width="2.6"/>
<g id="head"><path d="M19.26,56.5 L20.72,18.28 Q21,11 25.36,14.12 L48.26,30.5 Z" fill="#EEC3A7" stroke="#2B2A28" stroke-width="2.6" stroke-linejoin="round"/><path d="M23.77,47.11 L23.73,24.41 Q23.72,18.73 26.98,21.5 L40.01,32.55 Z" fill="#F2A9A6"/><g transform="translate(100 0) scale(-1 1)"><path d="M19.26,56.5 L20.72,18.28 Q21,11 25.36,14.12 L48.26,30.5 Z" fill="#EEC3A7" stroke="#2B2A28" stroke-width="2.6" stroke-linejoin="round"/><path d="M23.77,47.11 L23.73,24.41 Q23.72,18.73 26.98,21.5 L40.01,32.55 Z" fill="#F2A9A6"/></g><path d="M50,29 C67.98,29 79,42 79,58 C79,76 65.95,79 50,79 C34.05,79 21,76 21,58 C21,42 32.02,29 50,29 Z" fill="#EEC3A7"/><g clip-path="url(#sphynx-head)"><path d="M41,35 Q50,32 59,35" fill="none" stroke="#C9906F" stroke-width="1.8" stroke-linecap="round"/><path d="M43,40 Q50,38 57,40" fill="none" stroke="#C9906F" stroke-width="1.8" stroke-linecap="round"/><path d="M24,60 Q28,64 26,68" fill="none" stroke="#C9906F" stroke-width="1.8" stroke-linecap="round"/><path d="M76,60 Q72,64 74,68" fill="none" stroke="#C9906F" stroke-width="1.8" stroke-linecap="round"/></g><path d="M50,29 C67.98,29 79,42 79,58 C79,76 65.95,79 50,79 C34.05,79 21,76 21,58 C21,42 32.02,29 50,29 Z" fill="none" stroke="#2B2A28" stroke-width="2.6"/><ellipse cx="32.02" cy="64" rx="5" ry="2.8" fill="#F4A9B4" opacity="0.85"/><ellipse cx="67.98" cy="64" rx="5" ry="2.8" fill="#F4A9B4" opacity="0.85"/><ellipse cx="38.69" cy="58" rx="6" ry="5.4" fill="#B5CB52" stroke="#2B2A28" stroke-width="2"/><ellipse cx="38.69" cy="58" rx="3.36" ry="4" fill="#2B2A28"/><circle cx="36.89" cy="56.06" r="1.98" fill="#fff"/><circle cx="40.37" cy="59.62" r="0.84" fill="#fff"/><ellipse cx="61.31" cy="58" rx="6" ry="5.4" fill="#B5CB52" stroke="#2B2A28" stroke-width="2"/><ellipse cx="61.31" cy="58" rx="3.36" ry="4" fill="#2B2A28"/><circle cx="59.51" cy="56.06" r="1.98" fill="#fff"/><circle cx="62.99" cy="59.62" r="0.84" fill="#fff"/><path d="M46.4,64.65 Q50,63.05 53.6,64.65 Q51.6,68.25 50,68.45 Q48.4,68.25 46.4,64.65 Z" fill="#E58C98" stroke="#2B2A28" stroke-width="1.5" stroke-linejoin="round"/><path d="M50,68.45 Q50,72.25 46.4,72.25 Q44,72.25 43.6,70.05 M50,68.45 Q50,72.25 53.6,72.25 Q56,72.25 56.4,70.05" fill="none" stroke="#2B2A28" stroke-width="2" stroke-linecap="round"/></g>
<path d="M8,104 C8,88 16,80 28,76 Q50,86 72,76 C84,80 92,88 92,104 Z" fill="#4F5B9C" stroke="#2B2A28" stroke-width="2.6" stroke-linejoin="round" stroke-linecap="round"/><path d="M27,76 Q50,88 73,76 L75,82 Q50,95 25,82 Z" fill="#3D4885" stroke="#2B2A28" stroke-width="2" stroke-linejoin="round" stroke-linecap="round"/><path d="M32,81 L31,86" fill="none" stroke="#6E7AB8" stroke-width="1.6" stroke-linecap="round"/><path d="M40,84 L40,89" fill="none" stroke="#6E7AB8" stroke-width="1.6" stroke-linecap="round"/><path d="M50,85 V90" fill="none" stroke="#6E7AB8" stroke-width="1.6" stroke-linecap="round"/><path d="M60,84 L60,89" fill="none" stroke="#6E7AB8" stroke-width="1.6" stroke-linecap="round"/><path d="M68,81 L69,86" fill="none" stroke="#6E7AB8" stroke-width="1.6" stroke-linecap="round"/><path d="M20,94 l5,-4 l5,4 l5,-4 l5,4 M60,94 l5,-4 l5,4 l5,-4 l5,4" fill="none" stroke="#7F8AC6" stroke-width="2"/></g>
</svg>
