<svg xmlns="http://www.w3.org/2000/svg" viewBox="0 0 100 100" width="256" height="256">
<title>Spring</title>
<defs><clipPath id="spring-frame"><circle cx="50" cy="52" r="45"/><rect x="0" y="0" width="100" height="52"/></clipPath><clipPath id="spring-head"><path d="M50,29 C69.84,29 82,42.52 82,59.16 C82,77.88 67.6,81 50,81 C32.4,81 18,77.88 18,59.16 C18,42.52 30.16,29 50,29 Z"/></clipPath><clipPath id="spring-body"><path d="M27,70 C15,76 9,88 8,104 L92,104 C91,88 85,76 73,70 Z"/></clipPath></defs>
<g id="backdrop"><circle cx="50" cy="52" r="45" fill="#F4EAD0"/><circle cx="50" cy="52" r="43" fill="none" stroke="#C9A44C" stroke-width="3"/><circle cx="50" cy="52" r="38.5" fill="none" stroke="#C9A44C" stroke-width="1" stroke-dasharray="1.5 3"/></g>
<g id="cat" clip-path="url(#spring-frame)" stroke-linejoin="round" stroke-linecap="round">
<path d="M27,70 C15,76 9,88 8,104 L92,104 C91,88 85,76 73,70 Z" fill="#FBF8F1"/><g clip-path="url(#spring-body)"><ellipse cx="50" cy="82" rx="29.44" ry="9" fill="#E2DBCF"/><path d="M70,74 C82,76 90,88 92,104 L72,104 C74,94 68,82 70,74 Z" fill="#A9ADB4"/></g><path d="M27,70 C15,76 9,88 8,104 L92,104 C91,88 85,76 73,70 Z" fill="none" stroke="#2B2A28" stroke-width="2.6"/>
<g id="head"><path d="M18.96,52.92 L23.53,23.59 Q24.4,18 27.57,20 L44.24,30.5 Z" fill="#A9ADB4" stroke="#2B2A28" stroke-width="2.6" stroke-linejoin="round"/><path d="M23.47,45.61 L25.44,28.21 Q25.94,23.86 28.27,25.7 L37.62,33.05 Z" fill="#E2BCC6"/><g transform="translate(100 0) scale(-1 1)"><path d="M18.96,52.92 L23.53,23.59 Q24.4,18 27.57,20 L44.24,30.5 Z" fill="#FBF8F1" stroke="#2B2A28" stroke-width="2.6" stroke-linejoin="round"/><path d="M23.47,45.61 L25.44,28.21 Q25.94,23.86 28.27,25.7 L37.62,33.05 Z" fill="#E2BCC6"/></g><path d="M50,29 C69.84,29 82,42.52 82,59.16 C82,77.88 67.6,81 50,81 C32.4,81 18,77.88 18,59.16 C18,42.52 30.16,29 50,29 Z" fill="#FBF8F1"/><g clip-path="url(#spring-head)"><path d="M14,26 L54,26 C52,36 46,42 36,42 C26,42 18,40 14,38 Z" fill="#A9ADB4"/><circle cx="70" cy="44" r="4" fill="#A9ADB4"/></g><path d="M50,29 C69.84,29 82,42.52 82,59.16 C82,77.88 67.6,81 50,81 C32.4,81 18,77.88 18,59.16 C18,42.52 30.16,29 50,29 Z" fill="none" stroke="#2B2A28" stroke-width="2.6"/><ellipse cx="30.16" cy="65.4" rx="5" ry="2.8" fill="#F4A9B4" opacity="0.85"/><ellipse cx="69.84" cy="65.4" rx="5" ry="2.8" fill="#F4A9B4" opacity="0.85"/><path d="M24,65.48 L10,62.48 M24,69.48 L11,71.48" stroke="#2B2A28" stroke-width="1.4" stroke-linecap="round" fill="none"/><g transform="translate(100 0) scale(-1 1)"><path d="M24,65.48 L10,62.48 M24,69.48 L11,71.48" stroke="#2B2A28" stroke-width="1.4" stroke-linecap="round" fill="none"/></g><ellipse cx="37.52" cy="60.2" rx="6.4" ry="7.4" fill="#84B2DC" stroke="#2B2A28" stroke-width="2"/><ellipse cx="37.52" cy="60.2" rx="3.58" ry="5.48" fill="#2B2A28"/><circle cx="35.6" cy="57.54" r="2.11" fill="#fff"/><circle cx="39.31" cy="62.42" r="0.9" fill="#fff"/><ellipse cx="62.48" cy="60.2" rx="6.4" ry="7.4" fill="#84B2DC" stroke="#2B2A28" stroke-width="2"/><ellipse cx="62.48" cy="60.2" rx="3.58" ry="5.48" fill="#2B2A28"/><circle cx="60.56" cy="57.54" r="2.11" fill="#fff"/><circle cx="64.27" cy="62.42" r="0.9" fill="#fff"/><path d="M46.4,66.14 Q50,64.54 53.6,66.14 Q51.6,69.74 50,69.94 Q48.4,69.74 46.4,66.14 Z" fill="#E58C98" stroke="#2B2A28" stroke-width="1.5" stroke-linejoin="round"/><path d="M50,69.94 Q50,73.74 46.4,73.74 Q44,73.74 43.6,71.54 M50,69.94 Q50,73.74 53.6,73.74 Q56,73.74 56.4,71.54" fill="none" stroke="#2B2A28" stroke-width="2" stroke-linecap="round"/><circle cx="30" cy="25.66" r="3.64" fill="#F2B8C2" stroke="#2B2A28" stroke-width="1.3"/><circle cx="34.13" cy="28.66" r="3.64" fill="#F2B8C2" stroke="#2B2A28" stroke-width="1.3"/><circle cx="32.55" cy="33.51" r="3.64" fill="#F2B8C2" stroke="#2B2A28" stroke-width="1.3"/><circle cx="27.45" cy="33.51" r="3.64" fill="#F2B8C2" stroke="#2B2A28" stroke-width="1.3"/><circle cx="25.87" cy="28.66" r="3.64" fill="#F2B8C2" stroke="#2B2A28" stroke-width="1.3"/><circle cx="30" cy="30" r="2.52" fill="#F2B8C2"/><circle cx="30" cy="30" r="1.54" fill="#E58C98"/><circle cx="42" cy="20.35" r="3.9" fill="#F2B8C2" stroke="#2B2A28" stroke-width="1.3"/><circle cx="46.42" cy="23.56" r="3.9" fill="#F2B8C2" stroke="#2B2A28" stroke-width="1.3"/><circle cx="44.73" cy="28.76" r="3.9" fill="#F2B8C2" stroke="#2B2A28" stroke-width="1.3"/><circle cx="39.27" cy="28.76" r="3.9" fill="#F2B8C2" stroke="#2B2A28" stroke-width="1.3"/><circle cx="37.58" cy="23.56" r="3.9" fill="#F2B8C2" stroke="#2B2A28" stroke-width="1.3"/><circle cx="42" cy="25" r="2.7" fill="#F2B8C2"/><circle cx="42" cy="25" r="1.65" fill="#E58C98"/><circle cx="58" cy="20.35" r="3.9" fill="#F2B8C2" stroke="#2B2A28" stroke-width="1.3"/><circle cx="62.42" cy="23.56" r="3.9" fill="#F2B8C2" stroke="#2B2A28" stroke-width="1.3"/><circle cx="60.73" cy="28.76" r="3.9" fill="#F2B8C2" stroke="#2B2A28" stroke-width="1.3"/><circle cx="55.27" cy="28.76" r="3.9" fill="#F2B8C2" stroke="#2B2A28" stroke-width="1.3"/><circle cx="53.58" cy="23.56" r="3.9" fill="#F2B8C2" stroke="#2B2A28" stroke-width="1.3"/><circle cx="58" cy="25" r="2.7" fill="#F2B8C2"/><circle cx="58" cy="25" r="1.65" fill="#E58C98"/><circle cx="70" cy="25.66" r="3.64" fill="#F2B8C2" stroke="#2B2A28" stroke-width="1.3"/><circle cx="74.13" cy="28.66" r="3.64" fill="#F2B8C2" stroke="#2B2A28" stroke-width="1.3"/><circle cx="72.55" cy="33.51" r="3.64" fill="#F2B8C2" stroke="#2B2A28" stroke-width="1.3"/><circle cx="67.45" cy="33.51" r="3.64" fill="#F2B8C2" stroke="#2B2A28" stroke-width="1.3"/><circle cx="65.87" cy="28.66" r="3.64" fill="#F2B8C2" stroke="#2B2A28" stroke-width="1.3"/><circle cx="70" cy="30" r="2.52" fill="#F2B8C2"/><circle cx="70" cy="30" r="1.54" fill="#E58C98"/><path d="M24,33 Q50,20 76,33" fill="none" stroke="#7FB06A" stroke-width="2" stroke-linecap="round"/></g>
</g>
</svg>
