<svg xmlns="http://www.w3.org/2000/svg" viewBox="0 0 100 100" width="256" height="256">
<title>Tuxedo</title>
<defs><clipPath id="tuxedo-frame"><circle cx="50" cy="52" r="45"/><rect x="0" y="0" width="100" height="52"/></clipPath><clipPath id="tuxedo-head"><path d="M50,25 C69.22,25 81,38 81,54 C81,72 67.05,75 50,75 C32.95,75 19,72 19,54 C19,38 30.78,25 50,25 Z"/></clipPath><clipPath id="tuxedo-body"><path d="M27,70 C15,76 9,88 8,104 L92,104 C91,88 85,76 73,70 Z"/></clipPath></defs>
<g id="backdrop"><circle cx="50" cy="52" r="45" fill="#CFE3D6"/></g>
<g id="cat" clip-path="url(#tuxedo-frame)" stroke-linejoin="round" stroke-linecap="round">
<path d="M27,70 C15,76 9,88 8,104 L92,104 C91,88 85,76 73,70 Z" fill="#36322F"/><g clip-path="url(#tuxedo-body)"><ellipse cx="50" cy="76" rx="28.52" ry="9" fill="#25221F"/><path d="M33,70 Q50,112 67,70 Q50,78 33,70 Z" fill="#FBF8F1"/></g><path d="M27,70 C15,76 9,88 8,104 L92,104 C91,88 85,76 73,70 Z" fill="none" stroke="#2B2A28" stroke-width="2.6"/>
<g id="head"><path d="M19.93,48 L24.36,17.76 Q25.2,12 28.28,14.32 L44.42,26.5 Z" fill="#36322F" stroke="#2B2A28" stroke-width="2.6" stroke-linejoin="round"/><path d="M24.29,40.67 L26.21,22.68 Q26.69,18.19 28.95,20.27 L38.01,28.63 Z" fill="#B9868D"/><g transform="translate(100 0) scale(-1 1)"><path d="M19.93,48 L24.36,17.76 Q25.2,12 28.28,14.32 L44.42,26.5 Z" fill="#36322F" stroke="#2B2A28" stroke-width="2.6" stroke-linejoin="round"/><path d="M24.29,40.67 L26.21,22.68 Q26.69,18.19 28.95,20.27 L38.01,28.63 Z" fill="#B9868D"/></g><path d="M50,25 C69.22,25 81,38 81,54 C81,72 67.05,75 50,75 C32.95,75 19,72 19,54 C19,38 30.78,25 50,25 Z" fill="#36322F"/><g clip-path="url(#tuxedo-head)"><path d="M50,47 C45,54 35,59 34,67 C33,75 42,80 50,80 C58,80 67,75 66,67 C65,59 55,54 50,47 Z" fill="#FBF8F1"/></g><path d="M50,25 C69.22,25 81,38 81,54 C81,72 67.05,75 50,75 C32.95,75 19,72 19,54 C19,38 30.78,25 50,25 Z" fill="none" stroke="#2B2A28" stroke-width="2.6"/><ellipse cx="30.78" cy="60" rx="5" ry="2.8" fill="#F4A9B4" opacity="0.85"/><ellipse cx="69.22" cy="60" rx="5" ry="2.8" fill="#F4A9B4" opacity="0.85"/><path d="M25,60 L11,57 M25,64 L12,66" stroke="#D8D1C4" stroke-width="1.4" stroke-linecap="round" fill="none"/><g transform="translate(100 0) scale(-1 1)"><path d="M25,60 L11,57 M25,64 L12,66" stroke="#D8D1C4" stroke-width="1.4" stroke-linecap="round" fill="none"/></g><ellipse cx="37.91" cy="55" rx="5.6" ry="6.6" fill="#E9BE45" stroke="#2B2A28" stroke-width="2"/><ellipse cx="37.91" cy="55" rx="3.14" ry="4.88" fill="#2B2A28"/><circle cx="36.23" cy="52.62" r="1.85" fill="#fff"/><circle cx="39.48" cy="56.98" r="0.78" fill="#fff"/><ellipse cx="62.09" cy="55" rx="5.6" ry="6.6" fill="#E9BE45" stroke="#2B2A28" stroke-width="2"/><ellipse cx="62.09" cy="55" rx="3.14" ry="4.88" fill="#2B2A28"/><circle cx="60.41" cy="52.62" r="1.85" fill="#fff"/><circle cx="63.66" cy="56.98" r="0.78" fill="#fff"/><path d="M46.4,60.65 Q50,59.05 53.6,60.65 Q51.6,64.25 50,64.45 Q48.4,64.25 46.4,60.65 Z" fill="#E58C98" stroke="#2B2A28" stroke-width="1.5" stroke-linejoin="round"/><path d="M50,64.45 Q50,68.25 46.4,68.25 Q44,68.25 43.6,66.05 M50,64.45 Q50,68.25 53.6,68.25 Q56,68.25 56.4,66.05" fill="none" stroke="#2B2A28" stroke-width="2" stroke-linecap="round"/></g>
<g transform="rotate(-8 34 89)"><ellipse cx="34" cy="89" rx="9" ry="6.5" fill="#FBF8F1" stroke="#2B2A28" stroke-width="2.6" stroke-linejoin="round" stroke-linecap="round"/><path d="M31.03,89.98 v3.9 M36.97,89.98 v3.9" stroke="#2B2A28" stroke-width="1.5" stroke-linejoin="round" stroke-linecap="round" fill="none"/></g><g transform="rotate(8 66 89)"><ellipse cx="66" cy="89" rx="9" ry="6.5" fill="#FBF8F1" stroke="#2B2A28" stroke-width="2.6" stroke-linejoin="round" stroke-linecap="round"/><path d="M63.03,89.98 v3.9 M68.97,89.98 v3.9" stroke="#2B2A28" stroke-width="1.5" stroke-linejoin="round" stroke-linecap="round" fill="none"/></g><path d="M50,77 L39,71.5 L39,82.5 Z M50,77 L61,71.5 L61,82.5 Z" fill="#C8503F" stroke="#2B2A28" stroke-width="2" stroke-linejoin="round" stroke-linecap="round"/><circle cx="50" cy="77" r="3.2" fill="#A63F31" stroke="#2B2A28" stroke-width="1.8" stroke-linejoin="round" stroke-linecap="round"/></g>
</svg>
