<svg xmlns="http://www.w3.org/2000/svg" viewBox="0 0 1024 1024" width="1024" height="1024">
<title>Purrjong</title>
<defs>
<radialGradient id="bg" cx="38%" cy="30%" r="85%"><stop offset="0" stop-color="#E4F0E8"/><stop offset=".6" stop-color="#CFE3D6"/><stop offset="1" stop-color="#A9CDBC"/></radialGradient>
<linearGradient id="face" x1="0" y1="0" x2=".55" y2="1"><stop offset="0" stop-color="#FFFFFA"/><stop offset=".42" stop-color="#FFFBF2"/><stop offset="1" stop-color="#F7EEDA"/></linearGradient>
<filter id="drop" x="-20%" y="-20%" width="150%" height="150%"><feGaussianBlur stdDeviation="20.48"/></filter>
</defs>
<rect width="1024" height="1024" rx="225.28" fill="url(#bg)"/>
<rect x="283.74800000000005" y="207.17999999999998" width="570" height="760" rx="68.39999999999999" fill="#1E2822" opacity=".28" filter="url(#drop)"/>
<rect x="271.46000000000004" y="176.45999999999998" width="570" height="760" rx="68.39999999999999" fill="#386A58"/><rect x="256.64" y="161.64" width="570" height="760" rx="68.39999999999999" fill="#4A8470"/><rect x="241.82000000000002" y="146.82" width="570" height="760" rx="68.39999999999999" fill="#5B9880"/><rect x="227" y="132" width="570" height="760" rx="68.39999999999999" fill="#D8C59E"/><rect x="212.18" y="117.18" width="570" height="760" rx="68.39999999999999" fill="#E6D7B6"/><rect x="197.36" y="102.36" width="570" height="760" rx="68.39999999999999" fill="#F0E4C9"/>
<rect x="182.54000000000002" y="87.54" width="570" height="760" rx="68.39999999999999" fill="url(#face)"/>
<rect x="185.54000000000002" y="90.54" width="564" height="754" rx="65.39999999999999" fill="none" stroke="#2B2A28" stroke-opacity=".28" stroke-width="6"/>
<path d="M230.42000000000002,101.54 H684.14" stroke="#fff" stroke-opacity=".9" stroke-width="12" stroke-linecap="round"/>
<svg x="199.64000000000004" y="199.64000000000004" width="535.8" height="535.8" viewBox="0 0 100 100">

<defs><clipPath id="marmalade-frame"><circle cx="50" cy="52" r="45"/><rect x="0" y="0" width="100" height="52"/></clipPath><clipPath id="marmalade-head"><path d="M50,27 C71.7,27 85,40 85,56 C85,74 69.25,77 50,77 C30.75,77 15,74 15,56 C15,40 28.3,27 50,27 Z"/></clipPath><clipPath id="marmalade-body"><path d="M27,70 C15,76 9,88 8,104 L92,104 C91,88 85,76 73,70 Z"/></clipPath></defs>
<g id="backdrop"><circle cx="50" cy="52" r="45" fill="#CFE3D6"/></g>
<g id="cat" clip-path="url(#marmalade-frame)" stroke-linejoin="round" stroke-linecap="round">
<path d="M27,70 C15,76 9,88 8,104 L92,104 C91,88 85,76 73,70 Z" fill="#EE9A45"/><g clip-path="url(#marmalade-body)"><ellipse cx="50" cy="78" rx="32.2" ry="9" fill="#D47C2C"/></g><path d="M27,70 C15,76 9,88 8,104 L92,104 C91,88 85,76 73,70 Z" fill="none" stroke="#2B2A28" stroke-width="2.6"/>
<g id="head"><path d="M16.05,50 L21.05,19.76 Q22,14 25.47,16.32 L43.7,28.5 Z" fill="#EE9A45" stroke="#2B2A28" stroke-width="2.6" stroke-linejoin="round"/><path d="M20.98,42.67 L23.14,24.68 Q23.68,20.19 26.24,22.27 L36.46,30.63 Z" fill="#F6B5A6"/><g transform="translate(100 0) scale(-1 1)"><path d="M16.05,50 L21.05,19.76 Q22,14 25.47,16.32 L43.7,28.5 Z" fill="#EE9A45" stroke="#2B2A28" stroke-width="2.6" stroke-linejoin="round"/><path d="M20.98,42.67 L23.14,24.68 Q23.68,20.19 26.24,22.27 L36.46,30.63 Z" fill="#F6B5A6"/></g><path d="M50,27 C71.7,27 85,40 85,56 C85,74 69.25,77 50,77 C30.75,77 15,74 15,56 C15,40 28.3,27 50,27 Z" fill="#EE9A45"/><g clip-path="url(#marmalade-head)"><path d="M44,29 L45,35" fill="none" stroke="#D47C2C" stroke-width="3" stroke-linecap="round"/><path d="M50,27 V35" fill="none" stroke="#D47C2C" stroke-width="3" stroke-linecap="round"/><path d="M56,29 L55,35" fill="none" stroke="#D47C2C" stroke-width="3" stroke-linecap="round"/></g><path d="M50,27 C71.7,27 85,40 85,56 C85,74 69.25,77 50,77 C30.75,77 15,74 15,56 C15,40 28.3,27 50,27 Z" fill="none" stroke="#2B2A28" stroke-width="2.6"/><ellipse cx="28.3" cy="62" rx="5" ry="2.8" fill="#F07C6E" opacity="0.85"/><ellipse cx="71.7" cy="62" rx="5" ry="2.8" fill="#F07C6E" opacity="0.85"/><path d="M21,62 L7,59 M21,66 L8,68" stroke="#2B2A28" stroke-width="1.4" stroke-linecap="round" fill="none"/><g transform="translate(100 0) scale(-1 1)"><path d="M21,62 L7,59 M21,66 L8,68" stroke="#2B2A28" stroke-width="1.4" stroke-linecap="round" fill="none"/></g><path d="M30.85,59 Q36.35,52 41.85,59" fill="none" stroke="#2B2A28" stroke-width="2.6" stroke-linecap="round"/><path d="M58.15,59 Q63.65,52 69.15,59" fill="none" stroke="#2B2A28" stroke-width="2.6" stroke-linecap="round"/><path d="M46.4,62.65 Q50,61.05 53.6,62.65 Q51.6,66.25 50,66.45 Q48.4,66.25 46.4,62.65 Z" fill="#E58C98" stroke="#2B2A28" stroke-width="1.5" stroke-linejoin="round"/><path d="M42,66.85 Q50,68.45 58,66.85 Q57,76.85 50,77.35 Q43,76.85 42,66.85 Z" fill="#8E3F45" stroke="#2B2A28" stroke-width="2" stroke-linejoin="round"/><path d="M45.4,75.15 Q50,70.85 54.6,75.15 Q50,77.45 45.4,75.15 Z" fill="#EE8E9B"/></g>
</g>
</svg>
</svg>
